HIERARCHY
ROOT Hips
{
  OFFSET 263.056 91.6644 -274.608
  CHANNELS 6 Xposition Yposition Zposition Zrotation Xrotation Yrotation
  JOINT LeftUpLeg
  {
    OFFSET 8.64259 1.95398 -2.38835
    CHANNELS 3 Zrotation Xrotation Yrotation
    JOINT LeftLeg
    {
      OFFSET 43.7702 0 0
      CHANNELS 3 Zrotation Xrotation Yrotation
      JOINT LeftFoot
      {
        OFFSET 40.6238 0 0
        CHANNELS 3 Zrotation Xrotation Yrotation
        JOINT LeftToeBase
        {
          OFFSET 12.7242 0 0
          CHANNELS 3 Zrotation Xrotation Yrotation
          End Site
          {
            OFFSET 0 0 0
          }
        }
      }
    }
  }
  JOINT RightUpLeg
  {
    OFFSET -8.2249 1.95398 -2.59336
    CHANNELS 3 Zrotation Xrotation Yrotation
    JOINT RightLeg
    {
      OFFSET 43.5653 0 0
      CHANNELS 3 Zrotation Xrotation Yrotation
      JOINT RightFoot
      {
        OFFSET 40.6238 0 0
        CHANNELS 3 Zrotation Xrotation Yrotation
        JOINT RightToeBase
        {
          OFFSET 12.7242 0 0
          CHANNELS 3 Zrotation Xrotation Yrotation
          End Site
          {
            OFFSET 0 0 0
          }
        }
      }
    }
  }
  JOINT Spine
  {
    OFFSET 0.165834 0.87714 6.61349
    CHANNELS 3 Zrotation Xrotation Yrotation
    JOINT Spine1
    {
      OFFSET 7.38963 1.71661e-005 0
      CHANNELS 3 Zrotation Xrotation Yrotation
      JOINT Spine2
      {
        OFFSET 11.9445 1.14441e-005 0
        CHANNELS 3 Zrotation Xrotation Yrotation
        JOINT Spine3
        {
          OFFSET 14.7254 4.19617e-005 0
          CHANNELS 3 Zrotation Xrotation Yrotation
          JOINT Spine4
          {
            OFFSET 10.9679 0 0
            CHANNELS 3 Zrotation Xrotation Yrotation
            JOINT RightShoulder
            {
              OFFSET 2.46616 -1.6653 3.69651
              CHANNELS 3 Zrotation Xrotation Yrotation
              JOINT RightArm
              {
                OFFSET 13.0012 0 0
                CHANNELS 3 Zrotation Xrotation Yrotation
                JOINT RightForeArm
                {
                  OFFSET 28.7848 1.52588e-005 0
                  CHANNELS 3 Zrotation Xrotation Yrotation
                  JOINT RightHand
                  {
                    OFFSET 26.5688 1.52588e-005 0
                    CHANNELS 3 Zrotation Xrotation Yrotation
                    End Site
                    {
                      OFFSET 0 0 0
                    }
                  }
                }
              }
            }
            JOINT LeftShoulder
            {
              OFFSET 2.38034 -1.29275 -3.7523
              CHANNELS 3 Zrotation Xrotation Yrotation
              JOINT LeftArm
              {
                OFFSET 16.3182 6.10352e-005 0
                CHANNELS 3 Zrotation Xrotation Yrotation
                JOINT LeftForeArm
                {
                  OFFSET 27.0901 0 0
                  CHANNELS 3 Zrotation Xrotation Yrotation
                  JOINT LeftHand
                  {
                    OFFSET 24.5451 1.52588e-005 0
                    CHANNELS 3 Zrotation Xrotation Yrotation
                    End Site
                    {
                      OFFSET 0 0 0
                    }
                  }
                }
              }
            }
            JOINT Neck
            {
              OFFSET 5.0226 -0.0266342 0
              CHANNELS 3 Zrotation Xrotation Yrotation
              JOINT Head
              {
                OFFSET 6.69364 2.86102e-005 0
                CHANNELS 3 Zrotation Xrotation Yrotation
                End Site
                {
                  OFFSET 0 0 0
                }
              }
            }
          }
        }
      }
    }
  }
}
MOTION
Frames:	15
Frame Time:	0.0416667
-3.70097 96.3853 -21.9061 -94.916 -60.7218 -92.8422 -173.526 5.12022 90.622 -23.1309 12.9651 0.9523 63.7378 7.84121 11.5684 40.015 12.1085 -3.75003 179.687 11.6724 84.8132 -38.8345 0.364078 -7.30479 67.7579 -3.94703 -2.13629 42.4601 1.02869 3.27037 0.167606 7.90286 -89.8376 11.0679 0.409036 0.284432 -0.602978 0.421152 0.266158 -23.1383 0.304639 0.394221 -3.1256 0.304639 0.394209 84.3987 -48.6552 -109.78 34.1332 -11.3903 25.7147 -16.222 -10.6692 -60.7782 -12.1849 -0.964278 4.09104 -97.2856 -41.02 64.7169 -31.4506 6.65063 17.1059 19.1631 2.82247 -74.301 13.4368 1.06992 3.97743 7.242 21.1552 1.8627 3.29991 20.6679 6.13618 
-0.624491 96.7181 -17.7365 -92.6976 -69.2579 -89.918 -174.906 4.9234 89.3089 -22.4495 19.064 1.41463 64.401 8.27017 10.9688 37.7507 9.92436 -1.17913 -179.144 13.5325 88.3497 -40.6465 -0.24781 -6.28318 64.98 -2.89901 -1.62918 44.4113 1.09605 1.82265 0.00013949 7.87035 -89.7203 11.1326 0.130181 0.543988 -0.538486 0.154013 0.537723 -23.0727 -0.0393137 0.557968 -3.06009 -0.0393082 0.557968 84.3253 -48.963 -109.788 35.0629 -11.5258 26.0175 -17.4409 -11.7267 -60.1649 -9.4545 -0.795076 4.12872 -97.2885 -40.3692 64.4531 -28.7987 4.27184 18.0454 18.3745 3.82637 -70.914 12.7259 1.12823 4.8071 8.29833 16.9713 -0.182738 4.65757 16.9315 4.90164 
2.77024 97.1479 -13.4659 -86.1222 -78.7704 -81.7686 -174.631 4.51109 89.2329 -21.3397 22.9135 0.873242 64.1267 7.75106 11.4453 36.1705 8.26133 0.29691 -178.677 15.4614 91.894 -39.1479 -1.11204 -4.48007 61.3946 -1.64379 -0.915079 41.9199 0.891418 1.5481 -0.257486 7.90177 -89.7878 11.0709 -0.414039 0.462254 -0.600062 -0.393295 0.480018 -23.1354 -0.533829 0.316446 -3.12274 -0.533819 0.316444 84.4162 -49.3317 -109.526 35.5115 -11.894 26.696 -15.8324 -11.9401 -58.9272 -8.13673 -0.696897 3.93331 -97.5723 -40.2938 63.9645 -25.5017 3.2497 17.7877 17.5592 3.37644 -70.7945 12.4039 1.08166 4.64985 8.89206 12.5739 -1.32078 6.48126 12.8151 3.36216 
6.30254 96.8129 -9.21481 -36.2363 -85.6665 -32.0058 -174.795 3.92466 87.2001 -19.2353 19.038 0.0696923 63.2649 7.50887 11.3299 38.7245 11.5038 5.22903 -178.973 20.3155 92.9665 -38.1163 -0.0326758 -2.95877 59.1088 -0.56451 -0.231904 44.7452 1.22957 3.30141 -0.487569 7.8401 -89.7087 11.1959 -0.834915 0.661968 -0.474994 -0.804969 0.698069 -23.0118 -0.995259 0.380437 -2.99913 -0.995262 0.380422 84.2695 -50.1148 -109.487 35.6933 -12.4741 28.1256 -14.4047 -11.5199 -57.7658 -7.50125 -0.629195 3.49625 -97.8243 -40.076 63.468 -22.3575 2.5642 15.8742 17.9888 2.912 -72.492 12.7052 1.0481 4.21554 8.80163 8.15289 -2.47014 8.62985 8.7143 2.4026 
10.0379 95.5735 -5.46618 46.1252 -81.6187 50.4347 -174.765 4.21331 85.1706 -20.9721 11.6723 -0.481609 63.9774 9.40235 10.8199 42.9904 17.1298 7.91973 -179.873 26.2778 93.3887 -38.946 1.56021 -1.26136 62.4661 -1.36051 -0.735183 44.685 1.11564 1.84084 -0.677088 7.85986 -89.7727 11.1577 -1.24201 0.574011 -0.51278 -1.21554 0.628125 -23.0525 -1.35709 0.174143 -3.03987 -1.3571 0.17413 84.9203 -50.1818 -108.487 35.7296 -13.1247 29.5765 -12.9318 -12.0434 -55.5853 -7.38456 -0.553657 2.19097 -98.4715 -40.7154 62.6925 -18.9196 1.45747 12.0739 18.8168 2.05208 -76.0027 13.3228 1.12727 4.44651 9.14896 3.91066 -2.34312 10.213 4.48263 1.45457 
13.4249 93.4571 -2.18117 62.6484 -73.8238 67.2504 -173.994 5.6557 84.081 -26.1398 10.7673 -1.36896 62.3799 11.3764 16.6242 50.8575 24.4619 0.738985 179.562 33.5266 93.4829 -41.2698 3.1891 -0.0904289 63.5788 -1.57387 -0.849834 45.8215 1.11837 0.818457 -0.771325 8.05201 -89.881 10.7729 -1.48098 0.373731 -0.897289 -1.4631 0.43855 -23.4392 -1.52483 -0.0887576 -3.42658 -1.52482 -0.0887509 84.3338 -50.9445 -109.119 34.8707 -13.1127 31.0475 -11.7555 -11.8747 -53.1871 -6.28283 -0.479399 1.80403 -99.9145 -41.4369 60.7103 -14.8412 -1.3981 7.37367 19.9975 0.343179 -82.3655 13.9043 1.06073 3.66761 10.7488 -0.501903 -3.92428 11.2625 0.740591 2.46763 
16.1609 90.801 1.01235 71.0329 -66.4245 76.1849 -174.666 6.46252 84.4968 -34.1527 15.6281 -0.655578 64.108 15.9629 20.3077 54.1554 27.3581 -1.09923 178.51 40.2267 93.5901 -43.6616 3.59317 1.29258 65.1243 -1.87223 -1.00443 47.6933 1.16803 0.0436195 -0.823736 8.45217 -89.963 9.97182 -1.62487 0.205594 -1.69816 -1.61424 0.276916 -24.2413 -1.61152 -0.292391 -4.22869 -1.61151 -0.292378 82.0998 -52.8396 -111.763 33.2687 -14.1391 31.932 -10.5793 -14.9732 -49.2503 -8.89476 -0.601857 1.63667 -100.879 -40.8996 58.9512 -11.0022 -3.25643 1.25668 19.0303 -0.328717 -89.2633 15.2563 1.32149 4.71628 13.7768 -4.71081 -6.10586 11.4654 -2.65054 2.54186 
19.0673 88.1529 4.90101 74.039 -59.8669 80.2877 -175.809 4.73556 86.5361 -38.43 22.6481 0.688699 64.3474 19.5172 24.4502 60.3837 31.6892 -5.95878 176.896 46.23 93.5675 -43.9743 3.48432 3.19746 63.6819 -1.26275 -0.632335 51.5758 1.40403 -0.0285428 -0.919599 8.77321 -90.1608 9.32724 -1.90595 -0.177766 -2.34232 -1.91193 -0.0936846 -24.8873 -1.76439 -0.742541 -4.87469 -1.76439 -0.742542 81.1589 -52.3143 -113.314 33.3735 -15.0402 32.0908 -11.7299 -18.2393 -47.3894 -13.3652 -0.928139 3.0176 -99.7427 -38.8699 59.8404 -10.9334 -4.23517 -5.49174 20.5284 -4.11353 -94.6043 16.9188 1.69641 6.10578 17.3328 -7.55606 -6.76912 9.90516 -5.06593 2.33356 
23.2909 86.7035 10.4853 71.871 -54.7072 78.7902 -176.223 -0.989597 86.8093 -32.813 27.1821 1.52051 63.3007 19.2668 25.2885 61.2164 32.6809 -5.5025 174.665 50.8228 92.6373 -42.4482 3.86904 5.61603 61.2162 -0.404545 -0.0813927 56.5679 1.42659 -1.79495 -1.00447 8.59138 -90.3185 9.68686 -2.14632 -0.46426 -1.98236 -2.16469 -0.369315 -24.5286 -1.90755 -1.08807 -4.51599 -1.90755 -1.08807 81.4 -51.2665 -113.345 34.432 -13.4334 35.499 -12.3123 -14.8859 -50.8726 -18.1854 -1.19719 3.03826 -98.4589 -37.0553 61.1197 -11.6942 -0.529083 -9.69327 22.9984 -4.81615 -96.684 14.6509 1.50964 6.27402 18.383 -8.45365 -6.7108 7.9213 -5.8369 3.20229 
28.9654 86.261 17.3325 71.3365 -51.1397 78.7958 -175.984 -7.30632 88.876 -26.2346 29.7472 2.09504 59.8234 9.90907 16.2143 61.8359 36.0596 0.542026 170.523 52.2114 93.3392 -47.7416 8.4081 8.44836 64.3456 -1.44496 -0.708405 48.662 2.03359 7.19826 -1.17482 8.31778 -90.5788 10.2284 -2.60513 -0.927019 -1.44015 -2.6434 -0.811411 -23.9887 -2.20607 -1.66737 -3.97605 -2.20607 -1.66737 83.8244 -48.1835 -110.821 35.9546 -12.6366 37.4949 -8.96431 -9.83052 -54.6721 -19.7765 -1.13075 1.88033 -97.7231 -36.5365 62.1169 -13.7911 6.68774 -7.73556 23.7162 -6.44988 -97.0669 13.0478 1.34847 6.22901 18.683 -7.00664 -5.37109 5.63901 -4.72141 5.33937 
35.0252 85.8604 25.1489 66.8415 -50.8153 76.375 -173.642 -9.81493 92.2633 -21.1207 29 1.0026 44.0649 -9.22463 -0.972056 61.3903 38.9 7.41631 168.024 51.8012 97.4632 -55.9223 13.2817 7.83461 73.0853 -4.84965 -2.427 35.5168 0.380259 4.82196 -0.936618 7.94054 -90.936 10.9739 -2.29788 -1.64428 -0.695956 -2.36801 -1.54155 -23.2326 -1.6976 -2.25879 -3.22 -1.69761 -2.25879 84.4912 -46.2475 -110.469 34.4195 -12.4896 35.9602 -9.16588 -7.75211 -58.1471 -21.6204 -1.22788 1.83543 -97.5954 -37.0259 62.5469 -17.7539 14.5977 -3.73203 23.5588 -6.25892 -93.2826 13.9627 1.29117 5.23185 21.013 -5.21052 -2.94202 2.66288 -3.73565 6.22899 
40.6804 85.1132 32.5469 64.7996 -49.9933 73.9384 -175.484 -4.68031 91.8583 -33.1272 25.3344 1.25099 34.2521 -15.984 -6.48451 30.4438 1.12159 8.75824 171.29 49.9878 96.6483 -61.3037 17.1874 4.67069 78.3572 -6.04426 -2.72536 40.8381 1.26334 11.0717 -0.723217 7.82924 -91.0007 11.1978 -1.90459 -1.8045 -0.472869 -1.98215 -1.71894 -23.004 -1.27436 -2.29333 -2.99135 -1.27436 -2.29333 83.2692 -47.8334 -111.796 27.6034 -12.3447 29.9859 -8.03598 -5.75436 -61.2354 -23.3654 -1.31703 1.70898 -98.7956 -38.2214 61.0915 -22.3363 18.9917 0.860325 23.6801 -3.37069 -85.8684 14.5643 1.35142 5.28993 23.2149 -4.29167 -0.466252 1.27681 -3.76954 4.68682 
46.2898 85.0076 38.9908 66.8189 -50.7475 76.3064 -176.303 7.14678 89.82 -57.7544 18.2576 1.11396 38.2907 -13.418 -1.28937 26.5106 -3.76079 7.10804 172.644 42.4905 96.9811 -61.6786 18.7779 3.44691 82.7003 -7.62951 -3.1396 44.7634 1.61901 8.3702 -0.260652 8.1857 -91.1392 10.4869 -1.04174 -2.17268 -1.18539 -1.13633 -2.12476 -23.7065 -0.340809 -2.38519 -3.69383 -0.340821 -2.3852 81.9313 -48.886 -113.441 20.2978 -11.3845 19.716 -8.13276 -4.211 -65.4763 -26.7342 -1.44982 1.42737 -101.08 -40.2188 58.3222 -26.713 15.6925 4.53188 23.393 4.90693 -74.2337 13.5934 1.31661 5.72313 23.2932 -4.54105 2.14005 3.18825 -4.91404 2.71874 
51.4727 85.7535 45.7147 67.7103 -52.4406 76.5846 -174.204 21.3721 90.0722 -76.2075 15.6558 -0.0442117 42.8062 -10.4328 2.20374 33.671 5.33692 7.6414 174.293 33.6448 96.5556 -57.3965 22.4715 2.30901 84.7399 -8.84403 -3.44768 49.9787 2.56633 10.1163 0.331077 8.35699 -90.9955 10.1575 0.205621 -1.99386 -1.51499 0.11768 -2.00098 -24.0395 0.795249 -1.83999 -4.02679 0.795246 -1.83999 81.521 -47.2542 -114.697 16.7973 -9.71797 9.28043 -11.2063 -2.43347 -73.4216 -27.1541 -1.55088 1.81081 -100.601 -41.291 59.5662 -31.0366 14.6595 9.07405 18.3037 11.3223 -61.0127 20.5879 2.48741 8.27369 21.9073 -5.54951 2.99174 3.63549 -6.18292 1.84 
56.4707 87.4767 53.3427 64.2962 -52.7282 71.2924 -169.958 37.2603 86.7308 -84.7555 14.6519 -0.823893 48.2827 -6.37838 4.63923 41.1543 15.177 10.1243 175.776 25.4 93.5878 -48.5516 19.4052 0.771054 83.661 -9.45269 -3.74431 54.4019 2.92554 8.19402 0.851561 8.10799 -90.4848 10.6663 1.47266 -1.09922 -1.00427 1.42284 -1.16298 -23.5449 1.73494 -0.605724 -3.53224 1.73492 -0.605738 84.5742 -43.4273 -111.364 19.3446 -7.3197 -0.239113 -15.6187 -0.0297656 -87.8633 -27.3392 -1.67517 2.38825 -99.597 -41.4737 61.2284 -34.6565 15.5307 20.2104 17.804 11.2653 -61.2211 17.8737 1.9337 6.87274 20.6496 -8.21218 1.99676 3.12344 -8.46785 0.962185 
